<?xml version="1.0" standalone="no"?>
<!DOCTYPE svg PUBLIC "-//W3C//DTD SVG 20010904//EN"
 "http://www.w3.org/TR/2001/REC-SVG-20010904/DTD/svg10.dtd">
<svg version="1.0" xmlns="http://www.w3.org/2000/svg"
 width="752.000000pt" height="752.000000pt" viewBox="0 0 752.000000 752.000000"
 preserveAspectRatio="xMidYMid meet">
<metadata>
Created by potrace 1.16, written by Peter Selinger 2001-2019
</metadata>
<g transform="translate(0.000000,752.000000) scale(0.100000,-0.100000)"
fill="#000000" stroke="none">
<path d="M3698 6016 c-119 -33 -208 -141 -208 -252 l0 -34 -185 0 c-196 0
-227 -6 -258 -50 -13 -18 -29 -19 -438 -22 l-424 -3 -49 -24 c-63 -31 -115
-83 -146 -146 l-25 -50 0 -1850 c0 -1799 1 -1851 19 -1900 25 -65 94 -137 159
-166 l52 -24 1565 0 1565 0 52 24 c65 29 134 101 159 166 18 49 19 101 19
1900 l0 1850 -24 49 c-31 63 -84 116 -147 147 l-49 24 -412 3 -412 3 -34 34
-35 35 -196 0 -196 0 0 43 c0 53 -37 132 -81 174 -69 65 -183 94 -271 69z
m147 -160 c31 -20 51 -52 60 -93 l7 -33 -136 0 -136 0 0 26 c0 38 34 89 73
108 37 19 96 16 132 -8z m535 -446 l0 -180 -603 0 -604 0 -7 170 c-4 94 -4
175 -1 180 4 6 232 10 611 10 l604 0 0 -180z m-1360 5 l0 -95 -302 0 c-286 0
-305 -1 -336 -20 -66 -41 -62 75 -62 -1718 l0 -1629 23 -34 c12 -19 38 -42 57
-52 33 -16 116 -17 1398 -15 l1364 3 19 24 c19 23 19 64 19 1677 0 1821 4
1703 -62 1744 -31 19 -50 20 -325 20 l-293 0 0 95 0 95 389 0 c387 0 388 0
422 -23 18 -12 44 -38 56 -56 l23 -34 -2 -1828 -3 -1828 -21 -27 c-11 -15 -33
-37 -48 -48 -27 -21 -28 -21 -1576 -21 -1548 0 -1549 0 -1576 21 -15 11 -37
33 -48 48 l-21 27 -3 1828 -2 1828 23 34 c12 18 38 44 56 56 34 23 35 23 432
23 l399 0 0 -95z m20 -266 c6 -11 26 -29 43 -39 31 -19 56 -20 696 -20 l664 0
38 40 38 40 266 0 265 0 0 -1585 0 -1585 -1290 0 -1290 0 0 1585 0 1585 280 0
c271 0 280 -1 290 -21z"/>
<path d="M3578 4920 c-17 -11 -32 -49 -42 -112 -6 -31 -13 -38 -47 -52 l-40
-16 -52 35 c-28 19 -63 35 -76 35 -18 0 -58 -33 -148 -122 -141 -139 -143
-146 -89 -227 34 -51 35 -52 19 -89 -8 -20 -16 -38 -17 -40 -2 -1 -29 -7 -62
-13 -95 -17 -94 -14 -94 -220 0 -177 0 -178 25 -197 14 -11 49 -23 78 -26 51
-7 54 -8 69 -49 15 -42 15 -42 -18 -92 -55 -81 -52 -91 84 -227 135 -135 150
-141 227 -88 49 34 55 35 101 18 30 -10 33 -17 43 -72 8 -45 17 -67 36 -83 25
-22 35 -23 180 -23 203 0 206 1 229 110 10 52 13 56 52 69 40 14 42 13 87 -17
80 -56 94 -50 230 86 135 136 139 147 84 228 l-34 49 18 41 c16 38 22 43 61
49 114 17 121 30 116 238 -4 184 -6 189 -100 206 -34 6 -61 12 -62 13 -36 72
-36 73 0 123 60 85 54 100 -85 237 -136 136 -145 139 -225 83 l-51 -35 -42 16
c-40 16 -42 19 -49 70 -3 30 -15 65 -26 79 -19 25 -20 25 -191 25 -95 0 -180
-5 -189 -10z m273 -192 c15 -69 14 -67 129 -114 98 -40 118 -40 165 -5 l40 30
57 -56 56 -55 -29 -46 c-35 -56 -36 -69 -5 -130 13 -26 29 -65 36 -87 18 -57
25 -63 91 -76 l59 -12 0 -78 0 -77 -32 -7 c-87 -17 -96 -24 -118 -81 -11 -30
-29 -73 -40 -94 -27 -53 -25 -74 11 -127 l32 -45 -56 -56 -55 -55 -48 31 c-56
37 -71 39 -124 12 -21 -11 -64 -29 -93 -40 -58 -22 -69 -37 -82 -112 l-6 -38
-79 0 -79 0 -6 38 c-13 75 -24 90 -82 112 -29 11 -72 29 -93 40 -52 27 -68 25
-125 -11 l-48 -31 -55 55 -54 54 31 43 c36 50 38 76 11 130 -11 21 -29 64 -40
94 -22 57 -31 64 -117 81 l-33 7 0 77 0 78 59 12 c66 13 73 19 91 76 7 22 23
61 36 87 31 61 30 74 -5 130 l-29 46 56 55 57 55 39 -29 c21 -16 48 -29 60
-29 12 0 55 14 96 31 131 54 124 48 139 117 l15 62 76 0 76 0 15 -62z"/>
<path d="M3670 4424 c-96 -26 -175 -92 -218 -184 -36 -76 -38 -201 -4 -274 37
-80 85 -132 160 -168 60 -30 76 -33 152 -33 76 0 92 3 152 33 104 51 170 145
184 263 8 69 -18 109 -71 109 -44 0 -70 -33 -79 -98 -5 -38 -16 -60 -46 -95
-47 -53 -92 -71 -161 -65 -160 16 -226 214 -107 325 30 29 89 53 128 53 67 0
97 88 44 129 -31 24 -58 25 -134 5z"/>
<path d="M2770 3070 c-19 -19 -20 -33 -20 -394 l0 -375 22 -15 c19 -14 73 -16
389 -16 l368 0 20 26 c20 26 21 38 21 384 0 346 -1 358 -21 384 l-20 26 -370
0 c-356 0 -370 -1 -389 -20z m650 -395 l0 -265 -265 0 -265 0 0 265 0 265 265
0 265 0 0 -265z"/>
<path d="M3193 2768 l-92 -92 -29 27 c-20 19 -39 27 -63 27 -45 0 -69 -25 -69
-71 0 -29 10 -44 63 -97 95 -95 101 -93 260 66 110 110 127 132 127 160 0 42
-30 72 -73 72 -27 0 -46 -14 -124 -92z"/>
<path d="M3790 2903 c-52 -20 -68 -85 -30 -123 19 -19 33 -20 263 -20 242 0
244 0 265 23 27 29 28 67 3 98 -19 24 -20 24 -253 26 -128 1 -240 -1 -248 -4z"/>
<path d="M4468 2895 c-37 -20 -47 -69 -20 -104 19 -26 21 -26 147 -26 126 0
128 0 147 26 27 36 17 84 -22 104 -39 20 -214 20 -252 0z"/>
<path d="M3762 2580 c-32 -30 -30 -82 4 -109 26 -21 36 -21 484 -21 509 0 493
-2 506 67 5 26 1 37 -19 57 l-26 26 -464 0 c-452 0 -464 0 -485 -20z"/>
</g>
</svg>
